<svg width="256" height="256" xmlns="http://www.w3.org/2000/svg"><defs><style/></defs><path d="M201.143 0A54.857 54.857 0 0 1 256 54.857v146.286A54.857 54.857 0 0 1 201.143 256H54.857A54.857 54.857 0 0 1 0 201.143V54.857A54.857 54.857 0 0 1 54.857 0h146.286zm-67.657 45.714h-10.972a3.657 3.657 0 0 0-3.657 3.658v23.77H64a9.143 9.143 0 0 0-9.143 9.144v73.143A9.143 9.143 0 0 0 64 164.572h54.857v42.057a3.668 3.668 0 0 0 3.657 3.657h10.972a3.657 3.657 0 0 0 3.657-3.657V164.57H192a9.143 9.143 0 0 0 9.143-9.143V82.286A9.143 9.143 0 0 0 192 73.143h-54.857V49.37a3.657 3.657 0 0 0-3.657-3.657zM118.857 91.43v54.857H76.8a3.657 3.657 0 0 1-3.657-3.657V95.085a3.668 3.668 0 0 1 3.657-3.657h42.057zm60.343 0a3.668 3.668 0 0 1 3.657 3.657v47.543a3.657 3.657 0 0 1-3.657 3.657h-42.057V91.428z" fill-opacity=".87"/></svg>