<svg width="256" height="256" xmlns="http://www.w3.org/2000/svg"><defs><style/></defs><path d="M101.173 41.739a86.475 86.475 0 0 0-11.242 42.773 86.827 86.827 0 0 0 86.88 86.89 86.485 86.485 0 0 0 42.784-11.242c2.517-1.43 5.333 1.227 4.106 3.84a95.008 95.008 0 0 1-86.026 54.667 94.87 94.87 0 0 1-95.008-95.008 95.008 95.008 0 0 1 54.656-86.027c2.624-1.227 5.28 1.6 3.84 4.107zm-25.226 30.56l-1.6 1.962a80.288 80.288 0 0 0-16.971 49.419 80.15 80.15 0 0 0 80.288 80.267 80.277 80.277 0 0 0 49.387-16.982l1.93-1.578-3.445.373a101.013 101.013 0 0 1-4.363.277l-4.373.086A101.547 101.547 0 0 1 75.573 75.69l.374-3.392zM192 82.667a2.667 2.667 0 0 1 2.667 2.666v21.334H216a2.667 2.667 0 0 1 2.667 2.666V120a2.667 2.667 0 0 1-2.667 2.667h-21.333V144a2.667 2.667 0 0 1-2.667 2.667h-10.667a2.667 2.667 0 0 1-2.666-2.667v-21.333h-21.334a2.667 2.667 0 0 1-2.666-2.667v-10.667a2.667 2.667 0 0 1 2.666-2.666h21.334V85.333a2.667 2.667 0 0 1 2.666-2.666H192zM144 40a2.667 2.667 0 0 1 2.667 2.667v10.666h10.666A2.667 2.667 0 0 1 160 56v10.667a2.667 2.667 0 0 1-2.667 2.666h-10.666V80A2.667 2.667 0 0 1 144 82.667h-10.667A2.667 2.667 0 0 1 130.667 80V69.333H120a2.667 2.667 0 0 1-2.667-2.666V56A2.667 2.667 0 0 1 120 53.333h10.667V42.667A2.667 2.667 0 0 1 133.333 40H144z"/></svg>