<svg width="256" height="256" xmlns="http://www.w3.org/2000/svg"><defs><style/></defs><path d="M201.143 0A54.857 54.857 0 0 1 256 54.857v146.286A54.857 54.857 0 0 1 201.143 256H54.857A54.857 54.857 0 0 1 0 201.143V54.857A54.857 54.857 0 0 1 54.857 0h146.286zm-78.629 54.857h-76.8A9.143 9.143 0 0 0 36.571 64v128a9.143 9.143 0 0 0 9.143 9.143h76.8a5.486 5.486 0 0 0 5.486-5.486v-7.314a5.486 5.486 0 0 0-5.486-5.486h-64a3.657 3.657 0 0 1-3.657-3.657v-42.057h67.657a5.486 5.486 0 0 0 5.486-5.486v-7.314a5.486 5.486 0 0 0-5.486-5.486H54.857V76.8a3.668 3.668 0 0 1 3.657-3.657h64A5.486 5.486 0 0 0 128 67.657v-7.314a5.486 5.486 0 0 0-5.486-5.486zm87.772 54.857h-60.343a3.657 3.657 0 0 0-3.657 3.657v82.286a5.486 5.486 0 0 0 5.485 5.486h7.315a5.486 5.486 0 0 0 5.485-5.486V128h36.572v67.657a5.486 5.486 0 0 0 5.485 5.486h7.315a5.486 5.486 0 0 0 5.485-5.486v-76.8a9.143 9.143 0 0 0-9.142-9.143z" fill-opacity=".87"/></svg>