<svg width="256" height="256" xmlns="http://www.w3.org/2000/svg"><defs><style/></defs><path d="M128 0a128 128 0 1 0 0 256 128 128 0 0 0 0-256zm0 19.69a108.31 108.31 0 1 1 0 216.62 108.31 108.31 0 0 1 0-216.62zm.64 147.137a11.819 11.819 0 1 1 0 23.637 11.819 11.819 0 0 1 0-23.616zm-.64-97.92c21.76 0 39.381 17.835 39.381 39.765 0 14.507-6.89 24.021-21.397 35.157-4.736 3.627-7.552 9.28-7.552 13.718h-19.69c0-10.603 5.716-21.995 15.253-29.334 10.112-7.765 13.696-12.714 13.696-19.541 0-11.093-8.854-20.053-19.691-20.053a19.883 19.883 0 0 0-19.69 20.053H88.618c0-21.93 17.6-39.744 39.381-39.744z"/></svg>