<svg width="256" height="256" xmlns="http://www.w3.org/2000/svg"><defs><style/></defs><path d="M128 56.889c39.275 0 71.111 31.837 71.111 71.111S167.274 199.111 128 199.111 56.889 167.275 56.889 128 88.725 56.889 128 56.889zm0 21.333a49.778 49.778 0 1 0 0 99.556 49.778 49.778 0 0 0 0-99.556zm10.667 142.223v28.444h-21.334v-28.445h21.334zm0-213.334v28.445h-21.334V7.11h21.334zm-68.495 193.8l-20.11 20.11-15.082-15.076 20.11-20.125 15.082 15.09zM221.022 50.061l-20.11 20.11-15.083-15.082 20.11-20.11 15.083 15.075zM35.556 138.667H7.11v-21.334h28.445v21.334zm213.333 0h-28.445v-21.334h28.445v21.334zm-193.8-68.495l-20.11-20.11L50.056 34.98 70.18 55.09 55.09 70.172zm150.849 150.849l-20.11-20.11 15.082-15.083 20.11 20.11-15.075 15.083z"/></svg>